.
..............................Site Info...........................

 -   http://www.scenetime.com  *_*    

Scenetime .Always on time . friendly online private torrent community ..

     We care to share . Join us on  http://www.scenetime.com 

    Be the first to get new release at  http://www.scenetime.com

        Seed back for speed


...................................NFO:.................................................Total Recall 2012 TS XviD - ILLUMINATI

Video
ID                                       : 0
Format                                   : MPEG-4 Visual
Format profile                           : Advanced Simple@L5
Format settings, BVOP                    : 2
Format settings, QPel                    : No
Format settings, GMC                     : No warppoints
Format settings, Matrix                  : Default (H.263)
Muxing mode                              : Packed bitstream
Codec ID                                 : XVID
Codec ID/Hint                            : XviD
Duration                                 : 1h 49mn
Bit rate                                 : 1 663 Kbps
Width                                    : 720 pixels
Height                                   : 304 pixels
Display aspect ratio                     : 2.35:1
Frame rate                               : 25.000 fps
Color space                              : YUV
Chroma subsampling                       : 4:2:0
Bit depth                                : 8 bits
Scan type                                : Progressive
Compression mode                         : Lossy
Bits/(Pixel*Frame)                       : 0.304
Stream size                              : 1.27 GiB (92%)
Writing library                          : XviD 64

Audio
ID                                       : 1
Format                                   : MPEG Audio
Format version                           : Version 1
Format profile                           : Layer 3
Mode                                     : Joint stereo
Mode extension                           : MS Stereo
Codec ID                                 : 55
Codec ID/Hint                            : MP3
Duration                                 : 1h 49mn
Bit rate mode                            : Constant
Bit rate                                 : 128 Kbps
Channel(s)                               : 2 channels
Sampling rate                            : 44.1 KHz
Compression mode                         : Lossy
Stream size                              : 100 MiB (7%)
Alignment                                : Split accross interleaves
Interleave, duration                     : 40 ms (1.00 video frame)

Sources- JonnyBravo

[img]http://i.imgur.com/NZeAQ.png[/img]
[img]http://i.imgur.com/CjdAv.png[/img]
[img]http://i.imgur.com/kVIl6.png[/img]
[img]http://i.imgur.com/Ew0Uj.png[/img]
[img]http://i.imgur.com/DIQ81.png[/img]
[img]http://i.imgur.com/FDq2l.png[/img]
[img]http://i.imgur.com/TBMOB.png[/img]
[img]http://i.imgur.com/MBIPw.png[/img]
[img]http://i.imgur.com/dofj2.png[/img]